<?xml version="1.0" standalone="no"?>
<!DOCTYPE svg PUBLIC "-//W3C//DTD SVG 20010904//EN"
 "http://www.w3.org/TR/2001/REC-SVG-20010904/DTD/svg10.dtd">
<svg version="1.0" xmlns="http://www.w3.org/2000/svg"
 width="800.000000pt" height="800.000000pt" viewBox="0 0 800.000000 800.000000"
 preserveAspectRatio="xMidYMid meet">
<metadata>
Created by potrace 1.14, written by Peter Selinger 2001-2017
</metadata>
<g transform="translate(0.000000,800.000000) scale(0.100000,-0.100000)"
fill="#000000" stroke="none">
<path d="M305 7571 c-92 -57 -110 -118 -109 -376 0 -182 2 -205 22 -256 27
-67 67 -106 124 -118 26 -6 440 -10 1021 -10 539 0 981 -1 983 -4 2 -2 5
-1405 6 -3118 l3 -3115 27 -42 c27 -41 95 -88 140 -98 94 -20 171 -25 327 -21
206 5 228 9 301 45 40 20 64 41 87 76 l33 48 0 3111 c0 1711 2 3112 5 3115 7
8 833 7 828 0 -2 -5 14 -7 36 -6 26 1 38 5 34 12 -5 8 -3 8 8 0 21 -16 143
-19 134 -3 -6 8 -4 10 6 3 8 -5 25 -10 37 -12 17 -2 22 1 16 10 -6 10 -4 10 7
2 8 -6 52 -12 98 -13 67 -2 82 0 76 11 -6 10 -5 11 6 1 17 -16 43 -17 33 -1
-5 7 -3 8 7 2 8 -5 25 -10 37 -12 17 -2 22 1 16 10 -6 10 -4 10 7 2 21 -16
143 -19 134 -3 -6 8 -4 10 6 3 8 -5 25 -10 37 -12 17 -2 22 1 16 10 -6 10 -4
10 7 2 8 -6 52 -12 98 -13 67 -2 82 0 76 11 -6 10 -5 11 6 1 17 -16 43 -17 33
-1 -5 7 -3 8 7 2 8 -5 25 -10 37 -12 17 -2 22 1 16 10 -6 10 -4 10 7 2 21 -16
143 -19 134 -3 -6 8 -4 10 6 3 8 -5 25 -10 37 -12 17 -2 22 1 16 10 -6 10 -4
10 7 2 8 -6 52 -12 98 -13 67 -2 82 0 76 11 -6 10 -5 11 6 1 17 -16 43 -17 33
-1 -5 7 -3 8 7 2 8 -5 25 -10 37 -12 17 -2 22 1 16 10 -6 10 -4 10 7 2 21 -16
143 -19 134 -3 -6 8 -4 10 6 3 8 -5 25 -10 37 -12 17 -2 22 1 16 10 -6 10 -4
10 7 2 8 -6 52 -12 98 -13 67 -2 82 0 76 11 -6 10 -5 11 6 1 17 -16 43 -17 33
-1 -5 7 -3 8 7 2 8 -5 25 -10 37 -12 17 -2 22 1 16 10 -6 10 -5 10 7 1 9 -7
65 -11 163 -11 87 0 143 3 135 9 -10 6 -8 8 8 6 12 0 20 -4 18 -7 -2 -3 5 -6
15 -6 10 0 17 3 14 7 -2 3 18 9 44 13 60 8 143 35 160 53 8 7 17 12 20 10 4
-2 17 7 29 20 12 13 19 23 15 23 -4 0 1 5 11 11 9 5 17 16 17 23 0 8 6 19 14
25 8 7 13 21 11 33 -3 13 0 18 9 15 8 -3 12 3 11 16 -2 12 -8 21 -14 20 -6 -2
-11 2 -11 8 0 6 7 8 16 5 13 -5 15 9 13 117 -2 97 -6 125 -18 135 -15 12 -14
13 0 9 13 -4 15 -1 12 14 -3 10 -10 16 -16 12 -6 -4 -8 4 -5 21 4 18 2 23 -6
17 -7 -6 -11 -2 -12 14 -2 20 -84 116 -84 98 0 -3 -6 0 -14 6 -8 7 -29 17 -48
22 -124 39 -29 38 -3213 39 -2968 0 -3061 -1 -3090 -19z"/>
<path d="M3960 6434 c-79 -24 -123 -80 -137 -175 -11 -69 -9 -5532 1 -5579 15
-65 52 -116 103 -142 l48 -23 915 0 c503 0 944 4 980 8 274 34 453 77 655 160
276 112 532 298 726 528 232 275 397 615 511 1049 21 82 74 358 83 430 3 25
10 81 15 125 40 316 47 879 16 1225 -6 61 -16 154 -21 180 -2 14 -7 48 -10 75
-12 100 -40 257 -70 380 -9 39 -18 77 -20 85 -2 8 -20 69 -40 135 -227 746
-711 1254 -1380 1450 -50 15 -99 28 -110 31 -11 2 -45 9 -75 15 -30 7 -64 13
-75 15 -11 1 -51 7 -90 13 -38 6 -95 13 -125 17 -30 3 -460 7 -955 9 -729 2
-909 0 -945 -11z m1745 -638 c87 -6 143 -13 231 -30 493 -96 861 -425 1074
-962 44 -109 116 -372 135 -489 51 -313 60 -438 60 -815 0 -269 -7 -461 -19
-540 -2 -14 -8 -52 -11 -85 -9 -74 -12 -92 -18 -130 -3 -16 -8 -48 -12 -70 -3
-22 -7 -47 -10 -55 -2 -8 -6 -26 -9 -40 -104 -534 -363 -969 -708 -1194 -136
-88 -376 -183 -508 -201 -24 -4 -47 -8 -50 -10 -21 -13 -254 -19 -770 -19
l-595 -1 0 2322 c0 2316 0 2322 20 2325 40 6 1093 1 1190 -6z"/>
</g>
</svg>
